<mxfile host="app.diagrams.net" modified="2024-03-05T08:24:33.101Z" agent="Mozilla/5.0 (Windows NT 10.0; Win64; x64) AppleWebKit/537.36 (KHTML, like Gecko) Chrome/122.0.0.0 Safari/537.36" etag="cX4JGi32VZkSOHZx49fS" version="23.1.1" type="device">
  <diagram name="Page-1" id="5KLMY0ELgvUTj0Eln0es">
    <mxGraphModel dx="794" dy="1147" grid="1" gridSize="10" guides="1" tooltips="1" connect="1" arrows="1" fold="1" page="1" pageScale="1" pageWidth="850" pageHeight="1100" math="0" shadow="0">
      <root>
        <mxCell id="0" />
        <mxCell id="1" parent="0" />
        <mxCell id="HwVoPJ9knb5n41BW3D_v-7" style="edgeStyle=orthogonalEdgeStyle;rounded=0;orthogonalLoop=1;jettySize=auto;html=1;exitX=0.5;exitY=1;exitDx=0;exitDy=0;entryX=0.5;entryY=0;entryDx=0;entryDy=0;" edge="1" parent="1" source="HwVoPJ9knb5n41BW3D_v-1" target="HwVoPJ9knb5n41BW3D_v-9">
          <mxGeometry relative="1" as="geometry" />
        </mxCell>
        <mxCell id="HwVoPJ9knb5n41BW3D_v-1" value="&lt;h3&gt;&lt;b&gt;&lt;font style=&quot;font-size: 18px;&quot;&gt;App.jsx&lt;/font&gt;&lt;/b&gt;&lt;/h3&gt;" style="rounded=0;whiteSpace=wrap;html=1;" vertex="1" parent="1">
          <mxGeometry x="350" y="270" width="230" height="60" as="geometry" />
        </mxCell>
        <mxCell id="HwVoPJ9knb5n41BW3D_v-6" style="edgeStyle=orthogonalEdgeStyle;rounded=0;orthogonalLoop=1;jettySize=auto;html=1;exitX=0.5;exitY=1;exitDx=0;exitDy=0;endArrow=ERmany;endFill=0;" edge="1" parent="1" source="HwVoPJ9knb5n41BW3D_v-3" target="HwVoPJ9knb5n41BW3D_v-4">
          <mxGeometry relative="1" as="geometry" />
        </mxCell>
        <mxCell id="HwVoPJ9knb5n41BW3D_v-3" value="&lt;h3&gt;&lt;b&gt;&lt;font style=&quot;font-size: 18px;&quot;&gt;ContactList.jsx&lt;/font&gt;&lt;/b&gt;&lt;/h3&gt;" style="rounded=0;whiteSpace=wrap;html=1;" vertex="1" parent="1">
          <mxGeometry x="110" y="600" width="230" height="60" as="geometry" />
        </mxCell>
        <mxCell id="HwVoPJ9knb5n41BW3D_v-8" style="edgeStyle=orthogonalEdgeStyle;rounded=0;orthogonalLoop=1;jettySize=auto;html=1;exitX=0.5;exitY=1;exitDx=0;exitDy=0;" edge="1" parent="1" source="HwVoPJ9knb5n41BW3D_v-4" target="HwVoPJ9knb5n41BW3D_v-5">
          <mxGeometry relative="1" as="geometry" />
        </mxCell>
        <mxCell id="HwVoPJ9knb5n41BW3D_v-4" value="&lt;h3&gt;&lt;b&gt;&lt;font style=&quot;font-size: 18px;&quot;&gt;ContactListItem.jsx&lt;/font&gt;&lt;/b&gt;&lt;/h3&gt;" style="rounded=0;whiteSpace=wrap;html=1;" vertex="1" parent="1">
          <mxGeometry x="110" y="730" width="230" height="60" as="geometry" />
        </mxCell>
        <mxCell id="HwVoPJ9knb5n41BW3D_v-13" style="edgeStyle=orthogonalEdgeStyle;rounded=0;orthogonalLoop=1;jettySize=auto;html=1;exitX=1;exitY=0.5;exitDx=0;exitDy=0;entryX=0.5;entryY=0;entryDx=0;entryDy=0;" edge="1" parent="1" source="HwVoPJ9knb5n41BW3D_v-5" target="HwVoPJ9knb5n41BW3D_v-14">
          <mxGeometry relative="1" as="geometry">
            <mxPoint x="460" y="990" as="targetPoint" />
          </mxGeometry>
        </mxCell>
        <mxCell id="HwVoPJ9knb5n41BW3D_v-5" value="&lt;h3&gt;&lt;b&gt;&lt;font style=&quot;font-size: 18px;&quot;&gt;ContactDetails.jsx&lt;/font&gt;&lt;/b&gt;&lt;/h3&gt;" style="rounded=0;whiteSpace=wrap;html=1;" vertex="1" parent="1">
          <mxGeometry x="110" y="860" width="230" height="60" as="geometry" />
        </mxCell>
        <mxCell id="HwVoPJ9knb5n41BW3D_v-10" style="edgeStyle=orthogonalEdgeStyle;rounded=0;orthogonalLoop=1;jettySize=auto;html=1;exitX=0.5;exitY=1;exitDx=0;exitDy=0;" edge="1" parent="1" source="HwVoPJ9knb5n41BW3D_v-9" target="HwVoPJ9knb5n41BW3D_v-3">
          <mxGeometry relative="1" as="geometry" />
        </mxCell>
        <mxCell id="HwVoPJ9knb5n41BW3D_v-12" style="edgeStyle=orthogonalEdgeStyle;rounded=0;orthogonalLoop=1;jettySize=auto;html=1;exitX=0.5;exitY=1;exitDx=0;exitDy=0;" edge="1" parent="1" source="HwVoPJ9knb5n41BW3D_v-9" target="HwVoPJ9knb5n41BW3D_v-11">
          <mxGeometry relative="1" as="geometry" />
        </mxCell>
        <mxCell id="HwVoPJ9knb5n41BW3D_v-9" value="&lt;h3&gt;&lt;b&gt;&lt;font style=&quot;font-size: 18px;&quot;&gt;Menu.jsx&lt;/font&gt;&lt;/b&gt;&lt;/h3&gt;" style="rounded=0;whiteSpace=wrap;html=1;" vertex="1" parent="1">
          <mxGeometry x="350" y="440" width="230" height="60" as="geometry" />
        </mxCell>
        <mxCell id="HwVoPJ9knb5n41BW3D_v-11" value="&lt;h3&gt;&lt;b&gt;&lt;font style=&quot;font-size: 18px;&quot;&gt;NewContactForm.jsx&lt;/font&gt;&lt;/b&gt;&lt;/h3&gt;" style="rounded=0;whiteSpace=wrap;html=1;" vertex="1" parent="1">
          <mxGeometry x="550" y="600" width="230" height="60" as="geometry" />
        </mxCell>
        <mxCell id="HwVoPJ9knb5n41BW3D_v-14" value="&lt;h3&gt;&lt;b&gt;&lt;font style=&quot;font-size: 18px;&quot;&gt;UpdateContact.jsx&lt;/font&gt;&lt;/b&gt;&lt;/h3&gt;" style="rounded=0;whiteSpace=wrap;html=1;" vertex="1" parent="1">
          <mxGeometry x="340" y="980" width="230" height="60" as="geometry" />
        </mxCell>
      </root>
    </mxGraphModel>
  </diagram>
</mxfile>
